Coordinates
version=1
nRows=17
nColumns=24
inDegrees=yes

Units are S.I. units (second, meters, Newtons, ...)
Angles are in degrees.

endheader
time	pelvis_tilt	pelvis_list	pelvis_rotation	pelvis_tx	pelvis_ty	pelvis_tz	hip_flexion_r	hip_adduction_r	hip_rotation_r	knee_angle_r	ankle_angle_r	subtalar_angle_r	mtp_angle_r	hip_flexion_l	hip_adduction_l	hip_rotation_l	knee_angle_l	ankle_angle_l	subtalar_angle_l	mtp_angle_l	lumbar_extension	lumbar_bending	lumbar_rotation
47.49800000	4.84455933	-1.84559258	-0.77772078	0.60102028	1.04559875	-0.02160049	0.58053964	-2.90617367	-6.95037445	-55.30216526	-17.37604853	-0.00000082	0.00000000	35.75016001	1.38076320	0.20135362	-33.94128248	-3.80150899	0.00000249	0.00000000	-19.54310531	-0.47001089	-4.72635202
47.50000000	4.84455933	-1.84559258	-0.77772078	0.60102028	1.04559875	-0.02160049	1.01583230	-2.90617367	-6.95037445	-56.09800600	-17.97540842	-0.00000082	0.00000000	35.60809835	1.38076320	0.20135362	-34.18799406	-3.47049928	0.00000249	0.00000000	-19.54310531	-0.47001089	-4.72635202
47.50200000	4.84455933	-1.84559258	-0.77772078	0.60102028	1.04559875	-0.02160049	1.45987701	-2.90617367	-6.95037445	-56.88567656	-18.51655297	-0.00000082	0.00000000	35.45555709	1.38076320	0.20135362	-34.41630983	-3.13766994	0.00000249	0.00000000	-19.54310531	-0.47001089	-4.72635202
47.50400000	4.84455933	-1.84559258	-0.77772078	0.60102028	1.04559875	-0.02160049	1.90953306	-2.90617367	-6.95037445	-57.66639779	-18.99628896	-0.00000082	0.00000000	35.29435196	1.38076320	0.20135362	-34.62667173	-2.80389320	0.00000249	0.00000000	-19.54310531	-0.47001089	-4.72635202
47.50600000	4.84455933	-1.84559258	-0.77772078	0.60102028	1.04559875	-0.02160049	2.36622955	-2.90617367	-6.95037445	-58.43882583	-19.41173076	-0.00000082	0.00000000	35.12440742	1.38076320	0.20135362	-34.82057534	-2.47008606	0.00000249	0.00000000	-19.54310531	-0.47001089	-4.72635202
47.50800000	4.84455933	-1.84559258	-0.77772078	0.60102028	1.04559875	-0.02160049	2.82940881	-2.90617367	-6.95037445	-59.20265129	-19.76065076	-0.00000082	0.00000000	34.94651012	1.38076320	0.20135362	-34.99907977	-2.13695305	0.00000249	0.00000000	-19.54310531	-0.47001089	-4.72635202
47.51000000	4.84455933	-1.84559258	-0.77772078	0.60102028	1.04559875	-0.02160049	3.29926524	-2.90617367	-6.95037445	-59.95709754	-20.04138774	-0.00000082	0.00000000	34.76113121	1.38076320	0.20135362	-35.16341365	-1.80510766	0.00000249	0.00000000	-19.54310531	-0.47001089	-4.72635202
47.51200000	4.84455933	-1.84559258	-0.77772078	0.60102028	1.04559875	-0.02160049	3.77528088	-2.90617367	-6.95037445	-60.70171549	-20.25299402	-0.00000082	0.00000000	34.56886909	1.38076320	0.20135362	-35.31472030	-1.47504227	0.00000249	0.00000000	-19.54310531	-0.47001089	-4.72635202
47.51400000	4.84455933	-1.84559258	-0.77772078	0.60102028	1.04559875	-0.02160049	4.25773572	-2.90617367	-6.95037445	-61.43558027	-20.39511898	-0.00000082	0.00000000	34.37025841	1.38076320	0.20135362	-35.45413920	-1.14716967	0.00000249	0.00000000	-19.54310531	-0.47001089	-4.72635202
47.51600000	4.84455933	-1.84559258	-0.77772078	0.60102028	1.04559875	-0.02160049	4.74647767	-2.90617367	-6.95037445	-62.15796987	-20.46808321	-0.00000082	0.00000000	34.16566578	1.38076320	0.20135362	-35.58284148	-0.82182480	0.00000249	0.00000000	-19.54310531	-0.47001089	-4.72635202
47.51800000	4.84455933	-1.84559258	-0.77772078	0.60102028	1.04559875	-0.02160049	5.24111937	-2.90617367	-6.95037445	-62.86826500	-20.47287567	-0.00000082	0.00000000	33.95572684	1.38076320	0.20135362	-35.70178603	-0.49925207	0.00000249	0.00000000	-19.54310531	-0.47001089	-4.72635202
47.52000000	4.84455933	-1.84559258	-0.77772078	0.60102028	1.04559875	-0.02160049	5.74139264	-2.90617367	-6.95037445	-63.56576985	-20.41107163	-0.00000082	0.00000000	33.74094271	1.38076320	0.20135362	-35.81191593	-0.17964576	0.00000249	0.00000000	-19.54310531	-0.47001089	-4.72635202
47.52200000	4.84455933	-1.84559258	-0.77772078	0.60102028	1.04559875	-0.02160049	6.24685998	-2.90617367	-6.95037445	-64.24986189	-20.28485476	-0.00000082	0.00000000	33.52166276	1.38076320	0.20135362	-35.91415745	0.13683550	0.00000249	0.00000000	-19.54310531	-0.47001089	-4.72635202
47.52400000	4.84455933	-1.84559258	-0.77772078	0.60102028	1.04559875	-0.02160049	6.75712937	-2.90617367	-6.95037445	-64.91990217	-20.09689732	-0.00000082	0.00000000	33.29836248	1.38076320	0.20135362	-36.00926281	0.45008569	0.00000249	0.00000000	-19.54310531	-0.47001089	-4.72635202
47.52600000	4.84455933	-1.84559258	-0.77772078	0.60102028	1.04559875	-0.02160049	7.27172859	-2.90617367	-6.95037445	-65.57528484	-19.85036631	-0.00000082	0.00000000	33.07137211	1.38076320	0.20135362	-36.09794668	0.76001121	0.00000249	0.00000000	-19.54310531	-0.47001089	-4.72635202
47.52800000	4.84455933	-1.84559258	-0.77772078	0.60102028	1.04559875	-0.02160049	7.78991268	-2.90617367	-6.95037445	-66.21556935	-19.54881666	-0.00000082	0.00000000	32.84128870	1.38076320	0.20135362	-36.18066413	1.06656631	0.00000249	0.00000000	-19.54310531	-0.47001089	-4.72635202
47.53000000	4.84455933	-1.84559258	-0.77772078	0.60102028	1.04559875	-0.02160049	8.31282086	-2.90617367	-6.95037445	-66.83925686	-19.19600786	-0.00000082	0.00000000	32.60772715	1.38076320	0.20135362	-36.25827128	1.36963486	0.00000249	0.00000000	-19.54310531	-0.47001089	-4.72635202
